<svg width="148" height="48" viewBox="0 0 148 48" fill="none" xmlns="http://www.w3.org/2000/svg">
<path d="M67.184 21V6.504H62.312V4.464H74.312V6.504H69.488V21H67.184ZM76.4814 21V4.464H82.7214C83.9374 4.464 84.9534 4.64 85.7694 4.992C86.5854 5.344 87.1934 5.896 87.5934 6.648C88.0094 7.4 88.2174 8.384 88.2174 9.6C88.2174 10.8 87.9774 11.816 87.4974 12.648C87.0334 13.48 86.3054 14.064 85.3134 14.4L88.3374 21H85.8174L83.1054 14.904H78.7854V21H76.4814ZM78.7854 12.96H82.7454C83.5134 12.96 84.1214 12.816 84.5694 12.528C85.0334 12.24 85.3614 11.848 85.5534 11.352C85.7454 10.84 85.8414 10.264 85.8414 9.624C85.8414 8.552 85.5854 7.752 85.0734 7.224C84.5774 6.696 83.7934 6.432 82.7214 6.432H78.7854V12.96ZM89.8784 21L94.3184 4.464H98.9024L103.342 21H101.014L99.9344 17.04H93.2624L92.1824 21H89.8784ZM93.7184 15.072H99.5024L97.1984 6.384H96.0224L93.7184 15.072ZM108.517 21L104.317 4.464H106.717L110.221 18.888H111.445L114.925 4.464H117.349L113.173 21H108.517ZM119.724 21V4.464H130.092V6.456H122.028V11.64H128.652V13.584H122.028V19.008H130.092V21H119.724ZM132.989 21V4.464H135.293V18.984H142.325V21H132.989ZM67.184 45V30.504H62.312V28.464H74.312V30.504H69.488V45H67.184ZM76.4814 45V28.464H82.7214C83.9374 28.464 84.9534 28.64 85.7694 28.992C86.5854 29.344 87.1934 29.896 87.5934 30.648C88.0094 31.4 88.2174 32.384 88.2174 33.6C88.2174 34.8 87.9774 35.816 87.4974 36.648C87.0334 37.48 86.3054 38.064 85.3134 38.4L88.3374 45H85.8174L83.1054 38.904H78.7854V45H76.4814ZM78.7854 36.96H82.7454C83.5134 36.96 84.1214 36.816 84.5694 36.528C85.0334 36.24 85.3614 35.848 85.5534 35.352C85.7454 34.84 85.8414 34.264 85.8414 33.624C85.8414 32.552 85.5854 31.752 85.0734 31.224C84.5774 30.696 83.7934 30.432 82.7214 30.432H78.7854V36.96ZM91.2704 45V28.464H93.5744V45H91.2704ZM97.3408 45V28.464H103.437C104.701 28.464 105.741 28.664 106.557 29.064C107.373 29.448 107.981 30.04 108.381 30.84C108.781 31.64 108.981 32.672 108.981 33.936C108.981 35.184 108.781 36.232 108.381 37.08C107.981 37.928 107.373 38.568 106.557 39C105.741 39.432 104.701 39.648 103.437 39.648H99.6448V45H97.3408ZM99.6448 37.704H103.413C104.549 37.704 105.365 37.384 105.861 36.744C106.373 36.088 106.629 35.152 106.629 33.936C106.629 32.72 106.373 31.832 105.861 31.272C105.365 30.712 104.549 30.432 103.413 30.432H99.6448V37.704Z" fill="#3D3834"/>
<path d="M54 32.6923C54 39.4897 48.5042 45 41.7249 45H25L29.7566 36.3846H40.8042C43.516 36.3846 45.7143 34.1805 45.7143 31.4615V3L54 3V32.6923Z" fill="#FFD23D"/>
<path d="M27.3913 3V11.3077H8.45217V19.6154H36V27.3077H8.45217V36.3846H25.9826L21.1304 45H0V3H27.3913Z" fill="#3D3834"/>
</svg>
